# xmcd
#
# Track frame offsets:
#	150
#	11528
#	28220
#	43818
#	55598
#	72441
#	76913
#	84928
#	93459
#	101898
#	117310
#	132508
#
# Disc length: 2086 seconds
#
# Revision: 1
# Processed by: cddbd v1.5.1PL0 Copyright (c) Steve Scherf et al.
# Submitted via: audiograbber 1.83.01
#
DISCID=9d08240c
DTITLE=Memphis Slim - Americans Swinging in Paris
DYEAR=1900
DGENRE=Blues
TTITLE0=Pinetop's Boogie Woogie
TTITLE1=Blues for Jimmy Yancey
TTITLE2=Drums Boogie Woogie
TTITLE3=New Tree and One Boogie
TTITLE4=Huchette Blues
TTITLE5=All By Myself
TTITLE6=Boogie for Chuck berry
TTITLE7=I'm Lost Without You
TTITLE8=Bye Bye Blues
TTITLE9=Celestal Boogie
TTITLE10=Huchette Boogie Woogie
TTITLE11=Boogie And Drums
EXTD=
EXTT0=
EXTT1=
EXTT2=
EXTT3=
EXTT4=
EXTT5=
EXTT6=
EXTT7=
EXTT8=
EXTT9=
EXTT10=
EXTT11=
PLAYORDER=
